<svg width="353" height="95" viewBox="0 0 353 95" fill="none" xmlns="http://www.w3.org/2000/svg">
   <path d="M9 94.6603L17.6603 86L9 77.3397L0.339746 86L9 94.6603ZM9 2V0.5C8.17157 0.5 7.5 1.17157 7.5 2L9 2ZM338.947 2H340.447C340.447 1.17157 339.776 0.5 338.947 0.5V2ZM338.947 86L337.641 86.7378C337.914 87.2202 338.43 87.5131 338.984 87.4995C339.538 87.486 340.039 87.1683 340.288 86.6732L338.947 86ZM325.388 62V60.5C324.854 60.5 324.361 60.7833 324.092 61.2439C323.823 61.7046 323.819 62.2734 324.082 62.7379L325.388 62ZM351 62L352.34 62.6732C352.574 62.2082 352.55 61.6554 352.277 61.2125C352.003 60.7697 351.52 60.5 351 60.5V62ZM10.5 86V81.8H7.5V86H10.5ZM10.5 73.4V65H7.5V73.4H10.5ZM10.5 56.6V48.2H7.5V56.6H10.5ZM10.5 39.8V31.4H7.5V39.8H10.5ZM10.5 23V14.6H7.5V23H10.5ZM10.5 6.2V2H7.5V6.2H10.5ZM9 3.5H12.9279V0.5H9V3.5ZM20.7838 3.5H28.6397V0.5H20.7838V3.5ZM36.4956 3.5H44.3515V0.5H36.4956V3.5ZM52.2074 3.5H60.0632V0.5H52.2074V3.5ZM67.9191 3.5H75.775V0.5H67.9191V3.5ZM83.6309 3.5H91.4868V0.5H83.6309V3.5ZM99.3427 3.5H107.199V0.5H99.3427V3.5ZM115.054 3.5H122.91V0.5H115.054V3.5ZM130.766 3.5H138.622V0.5H130.766V3.5ZM146.478 3.5H154.334V0.5H146.478V3.5ZM162.19 3.5H170.046V0.5H162.19V3.5ZM177.901 3.5H185.757V0.5H177.901V3.5ZM193.613 3.5H201.469V0.5H193.613V3.5ZM209.325 3.5H217.181V0.5H209.325V3.5ZM225.037 3.5H232.893V0.5H225.037V3.5ZM240.749 3.5H248.604V0.5H240.749V3.5ZM256.46 3.5H264.316V0.5H256.46V3.5ZM272.172 3.5H280.028V0.5H272.172V3.5ZM287.884 3.5H295.74V0.5H287.884V3.5ZM303.596 3.5H311.452V0.5H303.596V3.5ZM319.307 3.5H327.163V0.5H319.307V3.5ZM335.019 3.5H338.947V0.5H335.019V3.5ZM337.447 2V6.2H340.447V2H337.447ZM337.447 14.6V23H340.447V14.6H337.447ZM337.447 31.4V39.8H340.447V31.4H337.447ZM337.447 48.2V56.6H340.447V48.2H337.447ZM337.447 65V73.4H340.447V65H337.447ZM337.447 81.8V86H340.447V81.8H337.447ZM340.253 85.2622L338.558 82.2622L335.946 83.7378L337.641 86.7378L340.253 85.2622ZM335.168 76.2622L331.778 70.2621L329.166 71.7378L332.556 77.7378L335.168 76.2622ZM328.389 64.2621L326.694 61.2621L324.082 62.7379L325.777 65.7378L328.389 64.2621ZM325.388 63.5H328.589V60.5H325.388V63.5ZM334.992 63.5H341.395V60.5H334.992V63.5ZM347.798 63.5H351V60.5H347.798V63.5ZM349.66 61.3268L348.153 64.3268L350.834 65.6732L352.34 62.6732L349.66 61.3268ZM345.14 70.3268L342.126 76.3268L344.807 77.6732L347.821 71.6732L345.14 70.3268ZM339.113 82.3268L337.607 85.3268L340.288 86.6732L341.794 83.6732L339.113 82.3268Z" fill="black" />
</svg>
   