<svg width="77" height="76" viewBox="0 0 77 76" fill="none" xmlns="http://www.w3.org/2000/svg">
   <path d="M1 68.1821L9.95761 74.4524V30.784L38.1741 14.2125L67.0624 30.784V74.4524L76.2439 68.1821V24.7377L38.1741 1L1 24.7377V68.1821Z" fill="#FFE70E" stroke="#FFE70E" />
   <g clip-path="url(#clip0_0_1)">
      <path d="M40.3192 34.2568C40.3951 34.2659 40.4725 34.2766 40.5483 34.2872C40.5483 34.2857 40.5483 34.2857 40.5483 34.2857C40.4725 34.275 40.3951 34.2659 40.3192 34.2568ZM37.1448 58.6321C37.0265 58.617 36.9081 58.5988 36.7897 58.579C36.9081 58.6003 37.0265 58.6185 37.1463 58.6352C37.4149 58.6731 37.6865 58.7004 37.9612 58.7186C37.6896 58.6989 37.4164 58.6701 37.1448 58.6321ZM35.8611 58.3863C35.6836 58.3408 35.5045 58.2922 35.327 58.2391C35.503 58.2922 35.6805 58.3423 35.8611 58.3863ZM38.773 58.7505C38.7973 58.752 38.8215 58.752 38.8458 58.752C38.8701 58.752 38.8944 58.752 38.9187 58.7505H38.773ZM39.7305 58.7186C40.1265 58.6928 40.518 58.6458 40.9019 58.579C40.5134 58.6443 40.1219 58.6913 39.7305 58.7186ZM41.8305 58.3863C42.0111 58.3423 42.1886 58.2922 42.3647 58.2391C42.1871 58.2922 42.0081 58.3408 41.8305 58.3863ZM50.2809 50.9704C50.2703 51.0022 50.2582 51.0341 50.2445 51.066C50.2582 51.0356 50.2703 51.0038 50.2824 50.9734C50.2824 50.9734 50.2824 50.9734 50.2824 50.9719C50.2976 50.934 50.3128 50.8945 50.3265 50.8566C50.3128 50.8945 50.2976 50.9324 50.2809 50.9704ZM50.7134 49.6669C50.7908 49.3846 50.8575 49.0978 50.9122 48.808C50.856 49.0963 50.7893 49.3831 50.7134 49.6669ZM26.7795 44.1114C26.8174 43.9186 26.8599 43.7259 26.9069 43.5332C26.8584 43.7244 26.8159 43.9171 26.7795 44.1114ZM26.7795 48.808C26.8341 49.0978 26.9008 49.3846 26.9782 49.6669C26.9024 49.3831 26.8356 49.0963 26.7795 48.808ZM26.6717 44.7593C26.6611 44.8322 26.652 44.9035 26.6444 44.9763C26.6535 44.9035 26.6626 44.8306 26.6732 44.7578C26.6717 44.7578 26.6717 44.7593 26.6717 44.7593ZM50.7847 43.5332C50.8317 43.7259 50.8742 43.9186 50.9122 44.1114C50.8758 43.9171 50.8333 43.7244 50.7847 43.5332ZM51.0184 48.163C51.0199 48.163 51.0199 48.163 51.0199 48.163C51.0305 48.0856 51.0411 48.0083 51.0487 47.9309C51.0396 48.0083 51.029 48.0856 51.0184 48.163Z" fill="#683737" />
      <path d="M50.1247 41.5651H50.1232C50.1353 41.5893 50.1459 41.6151 50.1566 41.6409C50.1459 41.6151 50.1353 41.5909 50.1247 41.5651Z" fill="#683737" />
      <path d="M51.1368 46.4589V46.465C51.1368 46.5697 51.1353 46.6744 51.1322 46.7776C51.1307 46.8838 51.1262 46.9885 51.1201 47.0932C51.111 47.2859 51.0973 47.4787 51.0776 47.6699C51.0685 47.7564 51.0594 47.8444 51.0488 47.9309C51.0397 48.0083 51.0291 48.0856 51.0184 48.163C51.0169 48.1843 51.0139 48.2055 51.0108 48.2253C50.9957 48.3224 50.9805 48.4195 50.9653 48.5166C50.9486 48.6137 50.9304 48.7109 50.9122 48.808C50.8561 49.0963 50.7893 49.3831 50.7134 49.6669C50.7119 49.6714 50.7104 49.676 50.7104 49.6805C50.6876 49.7609 50.6664 49.8399 50.6421 49.9203C50.6345 49.9491 50.6254 49.9795 50.6163 50.0083C50.5936 50.0827 50.5708 50.1555 50.548 50.2298C50.545 50.2374 50.542 50.2465 50.5405 50.2541C50.5101 50.3452 50.4798 50.4362 50.4479 50.5258C50.4175 50.6123 50.3872 50.6987 50.3538 50.7837C50.3462 50.808 50.3371 50.8323 50.3265 50.8566C50.3128 50.8945 50.2977 50.9324 50.281 50.9704C50.2704 51.0022 50.2582 51.0341 50.2446 51.066C50.24 51.0796 50.2339 51.0918 50.2294 51.1039C50.2021 51.1737 50.1732 51.242 50.1429 51.3103C50.1201 51.3649 50.0959 51.418 50.0731 51.4711C50.061 51.4969 50.0488 51.5243 50.0367 51.5501C50.0094 51.6108 49.9805 51.6715 49.9517 51.7322C49.9365 51.7655 49.9214 51.7974 49.9062 51.8293C49.8682 51.9051 49.8303 51.981 49.7924 52.0554C49.7514 52.1358 49.7104 52.2147 49.668 52.2936C49.6604 52.3088 49.6528 52.3225 49.6452 52.3361C49.5997 52.4165 49.5557 52.4985 49.5086 52.5774C49.4661 52.6533 49.4221 52.7276 49.3766 52.802C49.3675 52.8202 49.3554 52.8384 49.3432 52.8566C49.2977 52.9325 49.2491 53.0099 49.2006 53.0842C49.1475 53.1677 49.0929 53.2496 49.0382 53.3316C48.9836 53.4135 48.9275 53.4955 48.8698 53.5744C48.8121 53.6548 48.7545 53.7352 48.6953 53.8141C48.6361 53.893 48.5769 53.9704 48.5162 54.0478C48.4449 54.1389 48.3721 54.2284 48.2977 54.3179C48.2461 54.3802 48.193 54.4424 48.1399 54.5031C47.9487 54.7246 47.7484 54.9401 47.5375 55.151C47.3266 55.362 47.1111 55.5623 46.8896 55.7535C46.8289 55.8066 46.7667 55.8597 46.7045 55.9113C46.6149 55.9857 46.5254 56.0585 46.4344 56.1298C46.3737 56.1769 46.313 56.2254 46.2508 56.2709C46.2341 56.2846 46.2174 56.2967 46.2007 56.3089C46.1218 56.3681 46.0414 56.4272 45.9609 56.4834C45.8805 56.5411 45.8001 56.5972 45.7182 56.6518C45.6453 56.7019 45.571 56.7505 45.4966 56.7975C45.4814 56.8096 45.4663 56.8188 45.4511 56.8279C45.3752 56.8764 45.2978 56.925 45.2189 56.972C45.1522 57.013 45.0854 57.0524 45.0171 57.0919C44.9807 57.1147 44.9443 57.1359 44.9064 57.1556C44.8411 57.1936 44.7743 57.23 44.7076 57.2664C44.7061 57.2679 44.703 57.2694 44.7 57.2694C44.6332 57.3074 44.5649 57.3438 44.4967 57.3787C44.4481 57.403 44.4011 57.4288 44.3525 57.4515C44.2751 57.491 44.1977 57.5289 44.1188 57.5654C44.0627 57.5927 44.005 57.62 43.9489 57.6458C43.8821 57.6761 43.8138 57.7065 43.7455 57.7353C43.744 57.7353 43.744 57.7368 43.744 57.7368C43.7289 57.7429 43.7137 57.749 43.6985 57.755C43.6226 57.7884 43.5468 57.8203 43.4709 57.8506C43.3874 57.8855 43.304 57.9174 43.2205 57.9493C43.2023 57.9569 43.1841 57.9629 43.1674 57.969C43.0824 58.0009 42.9975 58.0327 42.9125 58.0616C42.8184 58.095 42.7243 58.1268 42.6303 58.1572C42.5422 58.186 42.4527 58.2133 42.3647 58.2391C42.1872 58.2922 42.0081 58.3408 41.8306 58.3863C41.7395 58.4076 41.65 58.4288 41.559 58.45C41.4376 58.4774 41.3147 58.5016 41.1933 58.5259C41.0962 58.5441 40.9991 58.5623 40.9019 58.579C40.5135 58.6443 40.122 58.6913 39.7305 58.7186C39.6319 58.7262 39.5332 58.7323 39.4361 58.7369C39.3375 58.7414 39.2389 58.7444 39.1402 58.7475C39.0917 58.749 39.0431 58.7505 38.993 58.749C38.9673 58.7505 38.943 58.7505 38.9187 58.7505H38.773C38.7487 58.7505 38.7245 58.7505 38.6987 58.749C38.6486 58.7505 38.6 58.749 38.5515 58.7475C38.4529 58.7444 38.3542 58.7414 38.2556 58.7369C38.1585 58.7323 38.0598 58.7262 37.9612 58.7186C37.6896 58.6989 37.4165 58.6701 37.1449 58.6321C37.0265 58.617 36.9081 58.5988 36.7898 58.579C36.6927 58.5623 36.5956 58.5441 36.4984 58.5259C36.3771 58.5016 36.2541 58.4774 36.1328 58.45C36.0417 58.4288 35.9522 58.4076 35.8611 58.3863C35.6836 58.3408 35.5045 58.2922 35.327 58.2391C35.239 58.2133 35.1495 58.186 35.0615 58.1572C34.9674 58.1268 34.8733 58.095 34.7792 58.0616C34.6943 58.0327 34.6093 58.0009 34.5243 57.969C34.5076 57.9629 34.4894 57.9569 34.4712 57.9493C34.4257 57.9326 34.3817 57.9144 34.3362 57.8962C34.3346 57.8962 34.3346 57.8962 34.3346 57.8962H34.3331C34.2952 57.8825 34.2588 57.8673 34.2208 57.8506C34.145 57.8203 34.0691 57.7884 33.9932 57.755C33.9098 57.7201 33.8263 57.6837 33.7428 57.6458C33.6867 57.62 33.629 57.5927 33.5729 57.5654C33.494 57.5289 33.4166 57.491 33.3392 57.4515C33.2907 57.4288 33.2436 57.403 33.1951 57.3787C33.1268 57.3438 33.0585 57.3074 32.9917 57.2694C32.9887 57.2694 32.9857 57.2679 32.9842 57.2664C32.9174 57.23 32.8506 57.1936 32.7854 57.1556C32.7474 57.1359 32.711 57.1147 32.6746 57.0919C32.6063 57.0524 32.5396 57.013 32.4728 56.972C32.3939 56.925 32.3165 56.8764 32.2406 56.8279C32.2255 56.8188 32.2103 56.8096 32.1951 56.7975C32.1208 56.7505 32.0464 56.7019 31.9736 56.6518C31.8916 56.5972 31.8112 56.5411 31.7308 56.4834C31.6504 56.4272 31.5699 56.3681 31.491 56.3089C31.4121 56.2497 31.3347 56.1905 31.2574 56.1298C31.1663 56.0585 31.0768 55.9857 30.9873 55.9113C30.925 55.8597 30.8628 55.8066 30.8021 55.7535C30.5806 55.5623 30.3651 55.362 30.1542 55.151C29.9433 54.9401 29.743 54.7246 29.5518 54.5031C29.4987 54.4424 29.4456 54.3802 29.394 54.3179C29.3196 54.2284 29.2468 54.1389 29.1755 54.0478C29.1284 53.9871 29.0814 53.9264 29.0344 53.8642C29.0207 53.8475 29.0086 53.8308 28.9964 53.8141C28.9372 53.7352 28.8796 53.6548 28.8219 53.5744C28.7643 53.4955 28.7081 53.4135 28.6535 53.3316C28.5989 53.2496 28.5442 53.1677 28.4911 53.0842C28.4426 53.0099 28.394 52.9325 28.3485 52.8566C28.3364 52.8384 28.3242 52.8202 28.3151 52.802C28.2696 52.7276 28.2256 52.6533 28.1831 52.5774C28.1361 52.4985 28.0921 52.4165 28.0465 52.3361C28.0389 52.3225 28.0314 52.3088 28.0238 52.2936C27.9813 52.2147 27.9403 52.1358 27.8993 52.0554C27.8614 51.981 27.8235 51.9051 27.7855 51.8293C27.7704 51.7974 27.7552 51.7655 27.74 51.7322C27.7112 51.6715 27.6824 51.6108 27.655 51.5501C27.6429 51.5243 27.6308 51.4969 27.6186 51.4711C27.6019 51.4332 27.5852 51.3953 27.5686 51.3573C27.567 51.3558 27.567 51.3558 27.567 51.3558C27.561 51.3406 27.5549 51.3255 27.5488 51.3103C27.5185 51.242 27.4896 51.1737 27.4623 51.1039C27.4578 51.0918 27.4517 51.0796 27.4472 51.066C27.4183 50.9962 27.391 50.9264 27.3652 50.8566C27.3546 50.8323 27.3455 50.808 27.3379 50.7837C27.3045 50.6987 27.2742 50.6123 27.2438 50.5258C27.212 50.4362 27.1816 50.3452 27.1513 50.2541C27.1498 50.2465 27.1467 50.2374 27.1437 50.2298C27.1209 50.1555 27.0982 50.0827 27.0754 50.0083C27.0663 49.9795 27.0572 49.9491 27.0496 49.9203C27.0253 49.8399 27.0041 49.7609 26.9813 49.6805C26.9813 49.676 26.9798 49.6714 26.9783 49.6669C26.9024 49.3831 26.8357 49.0963 26.7795 48.808C26.7613 48.7109 26.7431 48.6137 26.7264 48.5166C26.7112 48.4195 26.6961 48.3224 26.6809 48.2253V48.2207C26.6672 48.1251 26.6551 48.028 26.6429 47.9309C26.6323 47.8444 26.6232 47.7564 26.6141 47.6699C26.5944 47.4787 26.5807 47.2859 26.5716 47.0932C26.5656 46.9885 26.561 46.8838 26.5595 46.7776C26.5564 46.6744 26.5549 46.5697 26.5549 46.465V46.4589C26.5549 46.3527 26.5564 46.248 26.5595 46.1433C26.561 46.037 26.5656 45.9323 26.5716 45.8276C26.5853 45.5439 26.6096 45.2601 26.6445 44.9763C26.6536 44.9035 26.6627 44.8306 26.6733 44.7578C26.6763 44.732 26.6794 44.7062 26.6824 44.6819C26.696 44.5954 26.7097 44.5105 26.7234 44.424C26.7249 44.4133 26.7264 44.4027 26.7279 44.3906C26.7446 44.298 26.7613 44.2054 26.7795 44.1114C26.8174 43.9186 26.8599 43.7259 26.907 43.5332C26.9282 43.4437 26.951 43.3557 26.9737 43.2676C26.9783 43.2525 26.9828 43.2373 26.9859 43.2221C27.0056 43.1493 27.0268 43.078 27.0466 43.0066C27.083 42.8822 27.1209 42.7578 27.1619 42.6349C27.1877 42.5544 27.215 42.474 27.2438 42.3936C27.2711 42.3162 27.2985 42.2388 27.3273 42.1629C27.35 42.0977 27.3743 42.0339 27.4016 41.9717C27.4032 41.9641 27.4062 41.955 27.4107 41.9474V41.9459C27.4107 41.9444 27.4107 41.9444 27.4123 41.9429C27.4396 41.8685 27.4699 41.7957 27.5003 41.7244C27.5109 41.697 27.523 41.6697 27.5352 41.6409C27.564 41.5741 27.5928 41.5074 27.6232 41.4406C27.6323 41.4163 27.6429 41.392 27.655 41.3693C27.6824 41.3086 27.7112 41.2479 27.74 41.1872C27.7552 41.1538 27.7704 41.1219 27.7855 41.0901C27.8235 41.0142 27.8614 40.9383 27.8993 40.864C27.9449 40.7759 27.9904 40.6879 28.0374 40.6014C28.0845 40.5134 28.133 40.4269 28.1831 40.3419C28.2317 40.2554 28.2817 40.1705 28.3333 40.087C28.3713 40.0233 28.4107 39.9611 28.4502 39.8973C28.5306 39.7729 28.611 39.65 28.6929 39.5286C28.7354 39.4664 28.7779 39.4057 28.8219 39.345C28.8796 39.2645 28.9372 39.1841 28.9964 39.1052C29.0556 39.0263 29.1148 38.9489 29.1755 38.8715C29.2453 38.7805 29.3196 38.6909 29.394 38.6014C29.4456 38.5392 29.4987 38.477 29.5518 38.4163C29.743 38.1947 29.9433 37.9792 30.1542 37.7683C30.3651 37.5574 30.5806 37.3571 30.8021 37.1658C30.8628 37.1127 30.925 37.0596 30.9873 37.008C31.136 36.8836 31.2877 36.7637 31.441 36.6484C31.4622 36.6317 31.4834 36.615 31.5047 36.6013C31.573 36.5498 31.6428 36.4997 31.7126 36.4496C31.7247 36.439 31.7368 36.4314 31.749 36.4238C31.8158 36.3752 31.884 36.3282 31.9538 36.2812C31.9629 36.2736 31.9736 36.266 31.9827 36.2614C32.0616 36.2083 32.1405 36.1567 32.2209 36.1051C32.3044 36.052 32.3878 36.0004 32.4728 35.9488C32.5532 35.8988 32.6336 35.8517 32.7156 35.8047C32.7262 35.7971 32.7383 35.7895 32.7505 35.7834C32.8279 35.7394 32.9052 35.6969 32.9842 35.6544C32.9857 35.6514 32.9887 35.6499 32.9917 35.6514C33.0661 35.6089 33.1404 35.5695 33.2163 35.5315C33.2376 35.5194 33.2573 35.5088 33.2785 35.4981C33.3574 35.4587 33.4363 35.4192 33.5168 35.3813C33.5911 35.3449 33.667 35.31 33.7428 35.2751C33.8096 35.2432 33.8779 35.2129 33.9462 35.1855C33.9477 35.1855 33.9477 35.184 33.9477 35.184C33.9689 35.1749 33.9902 35.1643 34.0129 35.1567C34.0448 35.1415 34.0767 35.1279 34.1101 35.1157C34.1753 35.0869 34.2421 35.0596 34.3104 35.0338C34.3301 35.0247 34.3513 35.0171 34.3711 35.0095C34.4515 34.9776 34.5334 34.9458 34.6169 34.9169C34.6199 34.9139 34.6229 34.9139 34.6245 34.9139C34.6988 34.8851 34.7747 34.8593 34.8521 34.8335C34.9219 34.8092 34.9917 34.7849 35.0615 34.7637C35.2466 34.703 35.4317 34.6483 35.6168 34.5983C35.629 34.5952 35.6396 34.5922 35.6517 34.5892C35.8369 34.5391 36.022 34.4951 36.2086 34.4541C36.289 34.4359 36.3695 34.4192 36.4514 34.404C36.4878 34.3949 36.5242 34.3889 36.5622 34.3828C36.638 34.3676 36.7139 34.354 36.7898 34.3418C36.8823 34.3251 36.9764 34.3099 37.0705 34.2963C37.0826 34.2948 37.0948 34.2933 37.1069 34.2917C37.1949 34.2796 37.2845 34.2675 37.3725 34.2568H37.377C37.4635 34.2462 37.55 34.2371 37.6365 34.228C37.8277 34.2083 38.0204 34.1946 38.2131 34.1855C38.3178 34.1794 38.4225 34.1749 38.5287 34.1734C38.6334 34.1703 38.7396 34.1688 38.8459 34.1688C38.9521 34.1688 39.0583 34.1703 39.163 34.1734C39.2692 34.1749 39.3739 34.1794 39.4786 34.1855C39.6713 34.1946 39.864 34.2083 40.0552 34.228C40.1417 34.2371 40.2282 34.2462 40.3147 34.2568H40.3193C40.3951 34.2659 40.4725 34.2766 40.5484 34.2872C40.5727 34.2902 40.5969 34.2933 40.6212 34.2963C40.7153 34.3099 40.8094 34.3251 40.9019 34.3418C40.9778 34.354 41.0537 34.3676 41.1295 34.3828C41.1675 34.3889 41.2039 34.3949 41.2403 34.404C41.3223 34.4192 41.4027 34.4359 41.4831 34.4541C41.6697 34.4951 41.8549 34.5391 42.04 34.5892C42.0521 34.5922 42.0627 34.5952 42.0749 34.5983C42.26 34.6483 42.4451 34.703 42.6303 34.7637C42.7001 34.7849 42.7699 34.8092 42.8397 34.8335C42.917 34.8593 42.9929 34.8851 43.0673 34.9139C43.0688 34.9139 43.0718 34.9139 43.0749 34.9169C43.1583 34.9458 43.2402 34.9776 43.3207 35.0095C43.3328 35.0125 43.3434 35.0171 43.3556 35.0232C43.3647 35.0262 43.3723 35.0292 43.3814 35.0338C43.4496 35.0596 43.5164 35.0869 43.5817 35.1157C43.7046 35.1658 43.8275 35.2189 43.9489 35.2751C44.0247 35.31 44.1006 35.3449 44.175 35.3813C44.2554 35.4192 44.3343 35.4587 44.4132 35.4981C44.4344 35.5088 44.4542 35.5194 44.4754 35.5315C44.5513 35.5695 44.6256 35.6089 44.7 35.6514C44.703 35.6499 44.7061 35.6514 44.7076 35.6544C44.7865 35.6969 44.8639 35.7394 44.9413 35.7834C44.9534 35.7895 44.9655 35.7971 44.9762 35.8047C45.0581 35.8517 45.1385 35.8988 45.2189 35.9488C45.3039 36.0004 45.3874 36.052 45.4708 36.1051C45.5512 36.1567 45.6302 36.2083 45.7091 36.2614C45.7182 36.266 45.7288 36.2736 45.7379 36.2812C45.8077 36.3282 45.876 36.3752 45.9427 36.4238C45.9549 36.4314 45.967 36.439 45.9792 36.4496C46.049 36.4997 46.1188 36.5498 46.187 36.6013C46.3631 36.7303 46.5345 36.8654 46.7045 37.008C46.7667 37.0596 46.8289 37.1127 46.8896 37.1658C47.1111 37.3571 47.3266 37.5574 47.5375 37.7683C47.7484 37.9792 47.9487 38.1947 48.1399 38.4163C48.193 38.477 48.2461 38.5392 48.2977 38.6014C48.3721 38.6909 48.4464 38.7805 48.5162 38.8715C48.5648 38.9322 48.6118 38.9929 48.6574 39.0536V39.0551C48.671 39.0718 48.6847 39.0885 48.6953 39.1052C48.7545 39.1841 48.8121 39.2645 48.8698 39.345C48.9138 39.4057 48.9563 39.4664 48.9988 39.5286C49.0807 39.65 49.1611 39.7729 49.2416 39.8973C49.281 39.9611 49.3205 40.0233 49.3584 40.087C49.41 40.1705 49.4601 40.2554 49.5086 40.3419C49.5587 40.4269 49.6073 40.5134 49.6543 40.6014C49.7013 40.6879 49.7469 40.7759 49.7924 40.864C49.8303 40.9383 49.8682 41.0142 49.9062 41.0901C49.9214 41.1219 49.9365 41.1538 49.9517 41.1872C49.9805 41.2479 50.0094 41.3086 50.0367 41.3693C50.0488 41.392 50.0594 41.4163 50.0685 41.4406C50.0883 41.4816 50.1065 41.5225 50.1232 41.5635V41.565C50.1353 41.5893 50.1459 41.6151 50.1566 41.6409C50.1687 41.6697 50.1808 41.697 50.1915 41.7244C50.2218 41.7957 50.2521 41.8685 50.2795 41.9429C50.284 41.952 50.2886 41.9626 50.2901 41.9717C50.3174 42.0339 50.3417 42.0977 50.3644 42.1629C50.3933 42.2388 50.4206 42.3162 50.4479 42.3936C50.4767 42.474 50.504 42.5544 50.5298 42.6349C50.5708 42.7578 50.6087 42.8822 50.6452 43.0066C50.6649 43.078 50.6861 43.1493 50.7059 43.2221C50.7089 43.2373 50.7134 43.2525 50.718 43.2676C50.7408 43.3557 50.7635 43.4437 50.7848 43.5332C50.8318 43.7259 50.8743 43.9186 50.9122 44.1114C50.9304 44.2054 50.9471 44.298 50.9638 44.3906C50.9653 44.4027 50.9668 44.4133 50.9684 44.424C50.982 44.5105 50.9957 44.5954 51.0093 44.6819C51.0108 44.6956 51.0124 44.7093 51.0139 44.7244C51.026 44.8079 51.0382 44.8929 51.0473 44.9763C51.0822 45.2601 51.1064 45.5439 51.1201 45.8276C51.1262 45.9323 51.1307 46.037 51.1322 46.1433C51.1353 46.248 51.1368 46.3527 51.1368 46.4589Z" stroke="#683737" stroke-miterlimit="10" />
      <path d="M56.5994 51.5941C56.5994 56.8142 52.9637 61.1846 48.0868 62.3121C47.2871 62.4987 46.4541 62.5958 45.5983 62.5958C43.917 62.5958 42.3252 62.218 40.9004 61.5442C39.4452 60.8568 38.1661 59.8583 37.1464 58.6352C37.4149 58.6731 37.6866 58.7005 37.9612 58.7187C38.0598 58.7263 38.1585 58.7323 38.2556 58.7369C38.3542 58.7414 38.4528 58.7445 38.5515 58.7475C38.6 58.749 38.6486 58.7505 38.6987 58.749C38.7245 58.7505 38.7487 58.7505 38.773 58.7505C38.7973 58.7521 38.8216 58.7521 38.8458 58.7521C38.8701 58.7521 38.8944 58.7521 38.9187 58.7505C38.943 58.7505 38.9672 58.7505 38.993 58.749C39.0431 58.7505 39.0917 58.749 39.1402 58.7475C39.2389 58.7445 39.3375 58.7414 39.4361 58.7369C39.5332 58.7323 39.6319 58.7263 39.7305 58.7187C40.1265 58.6929 40.518 58.6458 40.9019 58.5791C40.999 58.5624 41.0962 58.5442 41.1933 58.5259C41.3147 58.5017 41.4376 58.4774 41.559 58.4501C41.65 58.4288 41.7395 58.4076 41.8306 58.3863C42.0111 58.3423 42.1887 58.2923 42.3647 58.2391C42.4527 58.2133 42.5422 58.186 42.6302 58.1572C42.7243 58.1269 42.8184 58.095 42.9125 58.0616C42.9975 58.0328 43.0824 58.0009 43.1674 57.969C43.1841 57.963 43.2023 57.9569 43.2205 57.9493C43.304 57.9174 43.3874 57.8856 43.4709 57.8507C43.5468 57.8203 43.6226 57.7885 43.6985 57.7551C43.7137 57.749 43.7288 57.7429 43.744 57.7369C43.744 57.7369 43.744 57.7353 43.7455 57.7353C43.8138 57.7065 43.8821 57.6762 43.9489 57.6458C44.005 57.62 44.0627 57.5927 44.1188 57.5654C44.1977 57.529 44.2751 57.491 44.3525 57.4516C44.401 57.4288 44.4481 57.403 44.4966 57.3787C44.5649 57.3438 44.6332 57.3074 44.7 57.2695C44.703 57.2695 44.706 57.268 44.7076 57.2664C44.7743 57.23 44.8411 57.1936 44.9063 57.1557C44.9443 57.1359 44.9807 57.1147 45.0171 57.0919C45.0854 57.0525 45.1522 57.013 45.2189 56.972C45.2978 56.925 45.3752 56.8764 45.4511 56.8279C45.4663 56.8188 45.4814 56.8097 45.4966 56.7975C45.571 56.7505 45.6453 56.7019 45.7181 56.6519C45.8001 56.5972 45.8805 56.5411 45.9609 56.4834C46.0414 56.4273 46.1218 56.3681 46.2007 56.3089C46.2174 56.2968 46.2341 56.2846 46.2508 56.271C47.8364 56.4151 49.4464 56.2163 50.9608 55.6746C52.4463 55.1435 53.8408 54.2831 55.0304 53.0949C55.6359 52.4909 56.1548 51.8339 56.5903 51.1373C56.5964 51.2891 56.5994 51.4408 56.5994 51.5941Z" fill="white" stroke="#FDE70D" stroke-miterlimit="10" />
      <path d="M37.9611 58.7187C37.6865 58.7005 37.4149 58.6732 37.1463 58.6352C37.1463 58.6352 37.1448 58.6337 37.1448 58.6322C37.4164 58.6701 37.6895 58.699 37.9611 58.7187Z" fill="#683737" />
      <path d="M38.9186 58.7505C38.8943 58.752 38.8701 58.752 38.8458 58.752C38.8215 58.752 38.7972 58.752 38.7729 58.7505H38.9186Z" fill="#683737" />
      <path d="M40.9019 58.5791C40.518 58.6459 40.1265 58.6929 39.7305 58.7187C40.122 58.6914 40.5134 58.6444 40.9019 58.5791Z" fill="#683737" />
      <path d="M42.3647 58.2391C42.1887 58.2922 42.0111 58.3423 41.8306 58.3863C42.0081 58.3408 42.1872 58.2922 42.3647 58.2391Z" fill="#683737" />
      <path d="M50.3264 50.8566C50.3128 50.8945 50.2976 50.934 50.2824 50.9719C50.2824 50.9734 50.2824 50.9734 50.2824 50.9734C50.2703 51.0038 50.2582 51.0356 50.2445 51.066C50.2582 51.0341 50.2703 51.0022 50.2809 50.9704C50.2976 50.9324 50.3128 50.8945 50.3264 50.8566Z" fill="#683737" />
      <path d="M50.9122 48.808C50.8575 49.0978 50.7908 49.3846 50.7134 49.6669C50.7892 49.3831 50.856 49.0963 50.9122 48.808Z" fill="#683737" />
      <path d="M50.1566 41.6409C50.1459 41.6151 50.1353 41.5893 50.1232 41.5651H50.1247C50.1353 41.5909 50.1459 41.6151 50.1566 41.6409Z" fill="#683737" />
      <path d="M50.9123 44.1114C50.8743 43.9186 50.8318 43.7259 50.7848 43.5332C50.8333 43.7244 50.8758 43.9171 50.9123 44.1114Z" fill="#683737" />
      <path d="M51.0488 47.9309C51.0412 48.0083 51.0306 48.0857 51.02 48.1631C51.02 48.1631 51.02 48.1631 51.0184 48.1631C51.0291 48.0857 51.0397 48.0083 51.0488 47.9309Z" fill="#683737" />
      <path d="M56.5903 51.1374C56.1548 51.8339 55.6358 52.491 55.0304 53.0949C53.8408 54.2831 52.4463 55.1435 50.9607 55.6747C49.4464 56.2164 47.8364 56.4152 46.2507 56.271C46.3129 56.2255 46.3736 56.1769 46.4343 56.1299C46.5254 56.0586 46.6149 55.9857 46.7044 55.9114C46.7666 55.8598 46.8289 55.8067 46.8896 55.7536C47.1111 55.5624 47.3266 55.3621 47.5375 55.1511C47.7484 54.9402 47.9487 54.7247 48.1399 54.5032C48.193 54.4425 48.2461 54.3802 48.2977 54.318C48.3721 54.2285 48.4449 54.139 48.5162 54.0479C48.5769 53.9705 48.6361 53.8931 48.6953 53.8142C48.7544 53.7353 48.8121 53.6549 48.8698 53.5745C48.9274 53.4956 48.9836 53.4136 49.0382 53.3317C49.0928 53.2497 49.1474 53.1678 49.2006 53.0843C49.2491 53.01 49.2977 52.9326 49.3432 52.8567C49.3553 52.8385 49.3675 52.8203 49.3766 52.8021C49.4221 52.7277 49.4661 52.6534 49.5086 52.5775C49.5556 52.4986 49.5996 52.4166 49.6452 52.3362C49.6527 52.3225 49.6603 52.3089 49.6679 52.2937C49.7104 52.2148 49.7514 52.1359 49.7923 52.0555C49.8303 51.9811 49.8682 51.9052 49.9061 51.8294C49.9213 51.7975 49.9365 51.7656 49.9517 51.7322C49.9805 51.6715 50.0093 51.6108 50.0366 51.5501C50.0488 51.5243 50.0609 51.497 50.0731 51.4712C50.0958 51.4181 50.1201 51.365 50.1429 51.3104C50.1732 51.2421 50.202 51.1738 50.2294 51.104C50.2339 51.0919 50.24 51.0797 50.2445 51.0661C50.2582 51.0357 50.2703 51.0038 50.2825 50.9735C50.2825 50.9735 50.2825 50.9735 50.2825 50.972C50.2976 50.934 50.3128 50.8946 50.3265 50.8567C50.3371 50.8324 50.3462 50.8081 50.3538 50.7838C50.3872 50.6988 50.4175 50.6123 50.4479 50.5258C50.4797 50.4363 50.5101 50.3453 50.5404 50.2542C50.5419 50.2466 50.545 50.2375 50.548 50.2299C50.5708 50.1556 50.5935 50.0827 50.6163 50.0084C50.6254 49.9795 50.6345 49.9492 50.6421 49.9204C50.6664 49.8399 50.6876 49.761 50.7104 49.6806C50.7104 49.6761 50.7119 49.6715 50.7134 49.6669C50.7908 49.3847 50.8576 49.0979 50.9122 48.8081C50.9304 48.7109 50.9486 48.6138 50.9653 48.5167C50.9805 48.4196 50.9956 48.3225 51.0108 48.2253C51.0138 48.2056 51.0169 48.1844 51.0184 48.1631C51.0199 48.1631 51.0199 48.1631 51.0199 48.1631C52.2414 47.1419 53.2399 45.8641 53.9273 44.4089C54.6025 42.984 54.9803 41.3891 54.9803 39.7077C54.9803 38.8519 54.8832 38.0172 54.6966 37.2175C54.8089 37.3192 54.9212 37.4269 55.0304 37.5362C58.7222 41.2282 59.2412 46.8915 56.5903 51.1374Z" fill="white" stroke="#FDE70D" stroke-miterlimit="10" />
      <path d="M50.3264 50.8566C50.3128 50.8945 50.2976 50.934 50.2824 50.9719C50.2824 50.9734 50.2824 50.9734 50.2824 50.9734C50.2703 51.0038 50.2582 51.0356 50.2445 51.066C50.2582 51.0341 50.2703 51.0022 50.2809 50.9704C50.2976 50.9324 50.3128 50.8945 50.3264 50.8566Z" fill="#683737" />
      <path d="M50.9122 48.808C50.8575 49.0978 50.7908 49.3846 50.7134 49.6669C50.7892 49.3831 50.856 49.0963 50.9122 48.808Z" fill="#683737" />
      <path d="M50.1566 41.6409C50.1459 41.6151 50.1353 41.5893 50.1232 41.5651H50.1247C50.1353 41.5909 50.1459 41.6151 50.1566 41.6409Z" fill="#683737" />
      <path d="M50.9123 44.1114C50.8743 43.9186 50.8318 43.7259 50.7848 43.5332C50.8333 43.7244 50.8758 43.9171 50.9123 44.1114Z" fill="#683737" />
      <path d="M51.0488 47.9309C51.0412 48.0083 51.0306 48.0857 51.02 48.1631C51.02 48.1631 51.02 48.1631 51.0184 48.1631C51.0291 48.0857 51.0397 48.0083 51.0488 47.9309Z" fill="#683737" />
      <path d="M54.9803 39.7077C54.9803 41.389 54.6025 42.9839 53.9272 44.4088C53.2399 45.8641 52.2414 47.1418 51.0199 48.1631C51.0305 48.0857 51.0412 48.0083 51.0487 47.9309C51.0594 47.8444 51.0685 47.7564 51.0776 47.6699C51.0973 47.4787 51.111 47.286 51.1201 47.0933C51.1261 46.9886 51.1307 46.8838 51.1322 46.7776C51.1352 46.6744 51.1368 46.5697 51.1368 46.465V46.459C51.1368 46.3527 51.1352 46.248 51.1322 46.1433C51.1307 46.0371 51.1261 45.9324 51.1201 45.8277C51.1064 45.5439 51.0821 45.2601 51.0472 44.9764C51.0381 44.8929 51.026 44.8079 51.0138 44.7245C51.0123 44.7093 51.0108 44.6956 51.0093 44.682C50.9956 44.5955 50.982 44.5105 50.9683 44.424C50.9668 44.4134 50.9653 44.4028 50.9638 44.3906C50.9471 44.2981 50.9304 44.2055 50.9122 44.1114C50.8758 43.9172 50.8333 43.7244 50.7847 43.5332C50.7635 43.4437 50.7407 43.3557 50.718 43.2677C50.7134 43.2525 50.7088 43.2373 50.7058 43.2222C50.6861 43.1493 50.6648 43.078 50.6451 43.0067C50.6087 42.8822 50.5708 42.7578 50.5298 42.6349C50.504 42.5545 50.4767 42.474 50.4479 42.3936C50.4205 42.3162 50.3932 42.2388 50.3644 42.163C50.3416 42.0977 50.3174 42.034 50.29 41.9718C50.2885 41.9627 50.284 41.952 50.2794 41.9429C50.2521 41.8686 50.2218 41.7957 50.1914 41.7244C50.1808 41.6971 50.1687 41.6698 50.1565 41.6409C50.1459 41.6152 50.1353 41.5909 50.1246 41.5651H50.1231V41.5636C50.1064 41.5226 50.0882 41.4816 50.0685 41.4406C50.0594 41.4164 50.0488 41.3921 50.0366 41.3693C50.0093 41.3086 49.9805 41.2479 49.9517 41.1872C49.9365 41.1538 49.9213 41.122 49.9061 41.0901C49.8682 41.0142 49.8303 40.9384 49.7923 40.864C49.7468 40.776 49.7013 40.688 49.6543 40.6015C49.6072 40.5135 49.5587 40.427 49.5086 40.342C49.46 40.2555 49.41 40.1705 49.3584 40.087C49.3204 40.0233 49.281 39.9611 49.2415 39.8974C49.1611 39.7729 49.0807 39.65 48.9987 39.5286C48.9563 39.4664 48.9138 39.4057 48.8698 39.345C48.8121 39.2646 48.7544 39.1841 48.6953 39.1052C48.6846 39.0885 48.671 39.0719 48.6573 39.0552V39.0536C48.8015 37.4694 48.6027 35.8593 48.0595 34.3449C47.5299 32.8593 46.6695 31.4647 45.4799 30.275C44.8744 29.6695 44.2159 29.1506 43.5194 28.715C43.6711 28.709 43.8244 28.7059 43.9792 28.7059C49.199 28.7059 53.5691 32.3403 54.6966 37.2175C54.8832 38.0172 54.9803 38.8518 54.9803 39.7077Z" fill="white" stroke="#FDE70D" stroke-miterlimit="10" />
      <path d="M40.5483 34.2857C40.5483 34.2857 40.5483 34.2857 40.5483 34.2872C40.4725 34.2766 40.3951 34.2659 40.3192 34.2568C40.3951 34.2659 40.4725 34.275 40.5483 34.2857Z" fill="#683737" />
      <path d="M50.1566 41.6409C50.1459 41.6151 50.1353 41.5893 50.1232 41.5651H50.1247C50.1353 41.5909 50.1459 41.6151 50.1566 41.6409Z" fill="#683737" />
      <path d="M50.9123 44.1114C50.8743 43.9186 50.8318 43.7259 50.7848 43.5332C50.8333 43.7244 50.8758 43.9171 50.9123 44.1114Z" fill="#683737" />
      <path d="M51.0488 47.9309C51.0412 48.0083 51.0306 48.0857 51.02 48.1631C51.02 48.1631 51.02 48.1631 51.0184 48.1631C51.0291 48.0857 51.0397 48.0083 51.0488 47.9309Z" fill="#683737" />
      <path d="M48.6574 39.0537C48.6119 38.993 48.5648 38.9323 48.5163 38.8716C48.4465 38.7805 48.3721 38.691 48.2977 38.6015C48.2462 38.5392 48.193 38.477 48.1399 38.4163C47.9487 38.1948 47.7484 37.9793 47.5375 37.7684C47.3266 37.5574 47.1111 37.3571 46.8896 37.1659C46.8289 37.1128 46.7667 37.0597 46.7045 37.0081C46.5345 36.8655 46.3631 36.7304 46.187 36.6014C46.1188 36.5498 46.049 36.4997 45.9792 36.4497C45.967 36.439 45.9549 36.4315 45.9427 36.4239C45.876 36.3753 45.8077 36.3283 45.7379 36.2812C45.7288 36.2736 45.7182 36.2661 45.7091 36.2615C45.6302 36.2084 45.5513 36.1568 45.4708 36.1052C45.3874 36.0521 45.3039 36.0005 45.2189 35.9489C45.1385 35.8988 45.0581 35.8518 44.9762 35.8047C44.9655 35.7972 44.9534 35.7896 44.9413 35.7835C44.8639 35.7395 44.7865 35.697 44.7076 35.6545C44.7061 35.6515 44.703 35.65 44.7 35.6515C44.6256 35.609 44.5513 35.5695 44.4754 35.5316C44.4542 35.5195 44.4345 35.5088 44.4132 35.4982C44.3343 35.4588 44.2554 35.4193 44.175 35.3814C44.1006 35.3449 44.0248 35.31 43.9489 35.2751C43.8275 35.219 43.7046 35.1659 43.5817 35.1158C43.5164 35.087 43.4497 35.0597 43.3814 35.0339C43.3723 35.0293 43.3647 35.0263 43.3556 35.0232C43.3434 35.0172 43.3328 35.0126 43.3207 35.0096C43.2403 34.9777 43.1583 34.9458 43.0749 34.917C43.0718 34.914 43.0688 34.914 43.0673 34.914C42.9929 34.8851 42.9171 34.8593 42.8397 34.8335C42.7699 34.8093 42.7001 34.785 42.6303 34.7637C42.4451 34.703 42.26 34.6484 42.0749 34.5983C42.0628 34.5953 42.0521 34.5923 42.04 34.5892C41.8549 34.5392 41.6698 34.4952 41.4831 34.4542C41.4027 34.436 41.3223 34.4193 41.2403 34.4041C41.2039 34.395 41.1675 34.3889 41.1296 34.3829C41.0537 34.3677 40.9778 34.354 40.9019 34.3419C40.8094 34.3252 40.7153 34.31 40.6212 34.2964C40.5969 34.2933 40.5727 34.2903 40.5484 34.2873C40.5484 34.2857 40.5484 34.2857 40.5484 34.2857C39.5287 33.0626 38.2495 32.0641 36.7928 31.3752C35.368 30.6999 33.7747 30.3236 32.0934 30.3236C31.2376 30.3236 30.4031 30.4207 29.6034 30.6074C29.7066 30.4951 29.8128 30.3843 29.922 30.275C33.6139 26.5845 39.2738 26.064 43.5195 28.7151C44.2159 29.1506 44.8745 29.6696 45.4799 30.275C46.6696 31.4647 47.5299 32.8593 48.0595 34.3449C48.6027 35.8594 48.8015 37.4694 48.6574 39.0537Z" fill="white" stroke="#FDE70D" stroke-miterlimit="10" />
      <path d="M40.5483 34.2857C40.5483 34.2857 40.5483 34.2857 40.5483 34.2872C40.4725 34.2766 40.3951 34.2659 40.3192 34.2568C40.3951 34.2659 40.4725 34.275 40.5483 34.2857Z" fill="#683737" />
      <path d="M40.5484 34.2858C40.4725 34.2751 40.3951 34.266 40.3192 34.2569H40.3147C40.2282 34.2463 40.1417 34.2372 40.0552 34.2281C39.864 34.2084 39.6713 34.1947 39.4786 34.1856C39.3739 34.1795 39.2692 34.175 39.163 34.1735C39.0583 34.1704 38.9521 34.1689 38.8459 34.1689C38.7396 34.1689 38.6334 34.1704 38.5287 34.1735C38.4225 34.175 38.3178 34.1795 38.2131 34.1856C38.0204 34.1947 37.8277 34.2084 37.6365 34.2281C37.55 34.2372 37.4635 34.2463 37.377 34.2569H37.3725C37.2844 34.2675 37.1949 34.2797 37.1069 34.2918C37.0948 34.2933 37.0826 34.2949 37.0705 34.2964C36.9764 34.31 36.8823 34.3252 36.7898 34.3419C36.7139 34.354 36.638 34.3677 36.5622 34.3829C36.5242 34.3889 36.4878 34.395 36.4514 34.4041C36.3695 34.4193 36.289 34.436 36.2086 34.4542C36.022 34.4952 35.8369 34.5392 35.6517 34.5892C35.6396 34.5923 35.629 34.5953 35.6168 34.5984C35.4317 34.6484 35.2466 34.7031 35.0615 34.7638C34.9917 34.785 34.9219 34.8093 34.8521 34.8336C34.7747 34.8594 34.6988 34.8852 34.6244 34.914C34.6229 34.914 34.6199 34.914 34.6169 34.917C34.5334 34.9459 34.4515 34.9777 34.371 35.0096C34.3513 35.0172 34.3301 35.0248 34.3103 35.0339C34.2421 35.0597 34.1753 35.087 34.11 35.1158C34.0767 35.128 34.0448 35.1416 34.0129 35.1568C33.9902 35.1644 33.9689 35.175 33.9477 35.1841C33.9477 35.1841 33.9477 35.1856 33.9462 35.1856C33.8779 35.2129 33.8096 35.2433 33.7428 35.2752C33.667 35.3085 33.5911 35.345 33.5167 35.3814C33.4363 35.4193 33.3574 35.4588 33.2785 35.4982C33.2573 35.5088 33.2375 35.5195 33.2163 35.5316C33.1404 35.5695 33.0661 35.609 32.9917 35.6515C32.9887 35.65 32.9857 35.6515 32.9841 35.6545C32.9052 35.697 32.8278 35.7395 32.7505 35.7835C32.7383 35.7896 32.7262 35.7972 32.7156 35.8048C32.6336 35.8503 32.5532 35.8973 32.4728 35.9489C32.3878 35.9975 32.3043 36.0506 32.2209 36.1052C32.1405 36.1553 32.0616 36.2069 31.9827 36.2615C31.9736 36.2661 31.9629 36.2737 31.9538 36.2812C31.8855 36.3268 31.8157 36.3738 31.749 36.4239C31.7368 36.4315 31.7247 36.4391 31.7126 36.4497C31.6428 36.4982 31.573 36.5483 31.5047 36.6014C31.4834 36.6151 31.4622 36.6318 31.4409 36.6485C29.8553 36.5043 28.2453 36.7031 26.7309 37.2448C25.2454 37.7744 23.8509 38.6349 22.6613 39.8246C22.0558 40.43 21.5369 41.0871 21.1014 41.7821C21.0953 41.6304 21.0923 41.4786 21.0923 41.3253C21.0923 36.1052 24.7265 31.7349 29.6034 30.6074C30.403 30.4207 31.2376 30.3236 32.0934 30.3236C33.7747 30.3236 35.368 30.6999 36.7928 31.3752C38.2495 32.0642 39.5287 33.0627 40.5484 34.2858Z" fill="white" stroke="#FDE70D" stroke-miterlimit="10" />
      <path d="M26.6732 44.7578C26.6626 44.8307 26.6535 44.9035 26.6444 44.9763C26.652 44.9035 26.6611 44.8322 26.6717 44.7593C26.6717 44.7593 26.6717 44.7578 26.6732 44.7578Z" fill="#683737" />
      <path d="M26.9782 49.6669C26.9008 49.3846 26.834 49.0978 26.7794 48.808C26.8356 49.0963 26.9023 49.3831 26.9782 49.6669Z" fill="#683737" />
      <path d="M26.9069 43.5332C26.8598 43.7259 26.8174 43.9186 26.7794 44.1114C26.8158 43.9171 26.8583 43.7244 26.9069 43.5332Z" fill="#683737" />
      <path d="M40.5483 34.2857C40.5483 34.2857 40.5483 34.2857 40.5483 34.2872C40.4725 34.2766 40.3951 34.2659 40.3192 34.2568C40.3951 34.2659 40.4725 34.275 40.5483 34.2857Z" fill="#683737" />
      <path d="M31.441 36.6485C31.2877 36.7638 31.136 36.8837 30.9873 37.0081C30.9251 37.0597 30.8629 37.1128 30.8022 37.1659C30.5806 37.3571 30.3651 37.5574 30.1542 37.7684C29.9433 37.9793 29.743 38.1948 29.5518 38.4163C29.4987 38.477 29.4456 38.5393 29.394 38.6015C29.3197 38.691 29.2453 38.7805 29.1755 38.8716C29.1148 38.949 29.0556 39.0264 28.9964 39.1053C28.9373 39.1842 28.8796 39.2646 28.8219 39.345C28.7779 39.4057 28.7355 39.4664 28.693 39.5287C28.611 39.6501 28.5306 39.773 28.4502 39.8974C28.4107 39.9611 28.3713 40.0234 28.3333 40.0871C28.2818 40.1706 28.2317 40.2555 28.1831 40.342C28.133 40.427 28.0845 40.5135 28.0375 40.6015C27.9904 40.688 27.9449 40.776 27.8994 40.864C27.8614 40.9384 27.8235 41.0143 27.7856 41.0901C27.7704 41.122 27.7552 41.1539 27.74 41.1873C27.7112 41.248 27.6824 41.3087 27.6551 41.3694C27.6429 41.3921 27.6323 41.4164 27.6232 41.4407C27.5929 41.5075 27.564 41.5742 27.5352 41.641C27.5231 41.6698 27.5109 41.6971 27.5003 41.7245C27.4699 41.7958 27.4396 41.8686 27.4123 41.943C27.4108 41.9445 27.4108 41.9445 27.4108 41.946V41.9475C27.4062 41.9551 27.4032 41.9642 27.4017 41.9718C27.3743 42.034 27.3501 42.0978 27.3273 42.163C27.2985 42.2389 27.2712 42.3163 27.2439 42.3937C27.215 42.4741 27.1877 42.5545 27.1619 42.6349C27.1209 42.7579 27.083 42.8823 27.0466 43.0067C27.0269 43.078 27.0056 43.1494 26.9859 43.2222C26.9829 43.2374 26.9783 43.2526 26.9738 43.2677C26.951 43.3557 26.9282 43.4438 26.907 43.5333C26.8584 43.7245 26.8159 43.9172 26.7795 44.1115C26.7613 44.2055 26.7446 44.2981 26.7279 44.3907C26.7264 44.4028 26.7249 44.4134 26.7234 44.4241C26.7097 44.5105 26.6961 44.5955 26.6824 44.682C26.6794 44.7063 26.6763 44.7321 26.6733 44.7579C26.6718 44.7579 26.6718 44.7594 26.6718 44.7594C25.4503 45.7792 24.4518 47.0569 23.7645 48.5121C23.0892 49.9371 22.7114 51.5319 22.7114 53.2133C22.7114 54.0692 22.8085 54.9023 22.9951 55.702C22.8828 55.6003 22.7706 55.4926 22.6613 55.3833C18.9695 51.6913 18.4505 46.0295 21.1014 41.7821C21.5369 41.0871 22.0559 40.43 22.6613 39.8246C23.8509 38.6349 25.2454 37.7744 26.731 37.2448C28.2453 36.7031 29.8553 36.5043 31.441 36.6485Z" fill="white" stroke="#FDE70D" stroke-miterlimit="10" />
      <path d="M26.6732 44.7578C26.6626 44.8307 26.6535 44.9035 26.6444 44.9763C26.652 44.9035 26.6611 44.8322 26.6717 44.7593C26.6717 44.7593 26.6717 44.7578 26.6732 44.7578Z" fill="#683737" />
      <path d="M26.9782 49.6669C26.9008 49.3846 26.834 49.0978 26.7794 48.808C26.8356 49.0963 26.9023 49.3831 26.9782 49.6669Z" fill="#683737" />
      <path d="M26.9069 43.5332C26.8598 43.7259 26.8174 43.9186 26.7794 44.1114C26.8158 43.9171 26.8583 43.7244 26.9069 43.5332Z" fill="#683737" />
      <path d="M34.1707 64.2059C34.019 64.212 33.8657 64.215 33.7124 64.215C28.4926 64.215 24.1225 60.5791 22.9951 55.702C22.8084 54.9022 22.7113 54.0692 22.7113 53.2133C22.7113 51.5319 23.0891 49.937 23.7644 48.5121C24.4518 47.0569 25.4502 45.7791 26.6717 44.7594C26.6611 44.8322 26.652 44.9036 26.6444 44.9764C26.6095 45.2602 26.5852 45.5439 26.5716 45.8277C26.5655 45.9324 26.5609 46.0371 26.5594 46.1433C26.5564 46.248 26.5549 46.3528 26.5549 46.459V46.465C26.5549 46.5698 26.5564 46.6745 26.5594 46.7777C26.5609 46.8839 26.5655 46.9886 26.5716 47.0933C26.5807 47.286 26.5943 47.4787 26.6141 47.6699C26.6232 47.7564 26.6323 47.8444 26.6429 47.9309C26.655 48.0281 26.6672 48.1252 26.6808 48.2208V48.2253C26.696 48.3224 26.7112 48.4196 26.7263 48.5167C26.743 48.6138 26.7612 48.7109 26.7795 48.808C26.8341 49.0979 26.9008 49.3847 26.9782 49.6669C26.9797 49.6715 26.9813 49.676 26.9813 49.6806C27.004 49.761 27.0253 49.8399 27.0495 49.9204C27.0571 49.9492 27.0662 49.9795 27.0753 50.0084C27.0981 50.0827 27.1209 50.1556 27.1436 50.2299C27.1467 50.2375 27.1497 50.2466 27.1512 50.2542C27.1816 50.3453 27.2119 50.4363 27.2438 50.5258C27.2741 50.6123 27.3045 50.6988 27.3379 50.7838C27.3454 50.8081 27.3545 50.8324 27.3652 50.8566C27.391 50.9264 27.4183 50.9962 27.4471 51.0661C27.4517 51.0797 27.4577 51.0918 27.4623 51.104C27.4896 51.1738 27.5184 51.2421 27.5488 51.3104C27.5548 51.3255 27.5609 51.3407 27.567 51.3559C27.567 51.3559 27.567 51.3559 27.5685 51.3574C27.5852 51.3953 27.6019 51.4333 27.6186 51.4712C27.6307 51.497 27.6429 51.5243 27.655 51.5501C27.6823 51.6108 27.7111 51.6715 27.74 51.7322C27.7551 51.7656 27.7703 51.7975 27.7855 51.8293C27.8234 51.9052 27.8614 51.9811 27.8993 52.0555C27.9403 52.1359 27.9812 52.2148 28.0237 52.2937C28.0313 52.3089 28.0389 52.3225 28.0465 52.3362C28.092 52.4166 28.136 52.4986 28.183 52.5775C28.2255 52.6533 28.2695 52.7277 28.3151 52.8021C28.3242 52.8203 28.3363 52.8385 28.3484 52.8567C28.394 52.9326 28.4425 53.0099 28.4911 53.0843C28.5442 53.1678 28.5988 53.2497 28.6534 53.3317C28.7081 53.4136 28.7642 53.4955 28.8219 53.5744C28.8795 53.6549 28.9372 53.7353 28.9964 53.8142C29.0085 53.8309 29.0206 53.8476 29.0343 53.8643C28.8902 55.4501 29.0889 57.0601 29.6322 58.5761C30.1617 60.0617 31.0221 61.4547 32.2117 62.6444C32.8172 63.2499 33.4742 63.7689 34.1707 64.2059Z" fill="white" stroke="#FDE70D" stroke-miterlimit="10" />
      <path d="M26.6732 44.7578C26.6626 44.8307 26.6535 44.9035 26.6444 44.9763C26.652 44.9035 26.6611 44.8322 26.6717 44.7593C26.6717 44.7593 26.6717 44.7578 26.6732 44.7578Z" fill="#683737" />
      <path d="M26.9782 49.6669C26.9008 49.3846 26.834 49.0978 26.7794 48.808C26.8356 49.0963 26.9023 49.3831 26.9782 49.6669Z" fill="#683737" />
      <path d="M35.327 58.2391C35.5046 58.2922 35.6836 58.3408 35.8612 58.3863C35.6806 58.3423 35.503 58.2922 35.327 58.2391Z" fill="#683737" />
      <path d="M37.9612 58.7187C37.6866 58.7005 37.415 58.6732 37.1464 58.6352C37.0265 58.6186 36.9082 58.6003 36.7898 58.5791C36.9082 58.5988 37.0265 58.617 37.1449 58.6322C37.4165 58.6701 37.6896 58.699 37.9612 58.7187Z" fill="#683737" />
      <path d="M38.9186 58.7505C38.8943 58.752 38.8701 58.752 38.8458 58.752C38.8215 58.752 38.7972 58.752 38.7729 58.7505H38.9186Z" fill="#683737" />
      <path d="M40.9019 58.5791C40.518 58.6459 40.1265 58.6929 39.7305 58.7187C40.122 58.6914 40.5134 58.6444 40.9019 58.5791Z" fill="#683737" />
      <path d="M42.3647 58.2391C42.1887 58.2922 42.0111 58.3423 41.8306 58.3863C42.0081 58.3408 42.1872 58.2922 42.3647 58.2391Z" fill="#683737" />
      <path d="M48.0868 62.3121C47.9851 62.4244 47.8789 62.5351 47.7696 62.6444C44.0778 66.3349 38.4179 66.8554 34.1722 64.2059H34.1707C33.4742 63.7689 32.8172 63.2499 32.2118 62.6444C31.0221 61.4547 30.1618 60.0617 29.6322 58.576C29.089 57.0601 28.8902 55.45 29.0343 53.8643C29.0814 53.9265 29.1284 53.9872 29.1754 54.0479C29.2468 54.1389 29.3196 54.2285 29.3939 54.318C29.4455 54.3802 29.4986 54.4424 29.5518 54.5031C29.7429 54.7247 29.9432 54.9402 30.1542 55.1511C30.3651 55.362 30.5806 55.5623 30.8021 55.7535C30.8628 55.8066 30.925 55.8597 30.9872 55.9113C31.0767 55.9857 31.1663 56.0585 31.2573 56.1299C31.3347 56.1906 31.4121 56.2497 31.491 56.3089C31.5699 56.3681 31.6503 56.4273 31.7307 56.4834C31.8112 56.5411 31.8916 56.5972 31.9735 56.6519C32.0464 56.7019 32.1207 56.7505 32.1951 56.7976C32.2102 56.8097 32.2254 56.8188 32.2406 56.8279C32.3165 56.8765 32.3938 56.925 32.4728 56.9721C32.5395 57.013 32.6063 57.0525 32.6746 57.0919C32.711 57.1147 32.7474 57.1359 32.7853 57.1557C32.8506 57.1936 32.9173 57.23 32.9841 57.2665C32.9856 57.268 32.9887 57.2695 32.9917 57.2695C33.0585 57.3074 33.1267 57.3438 33.195 57.3787C33.2436 57.403 33.2906 57.4288 33.3392 57.4516C33.4166 57.491 33.494 57.529 33.5729 57.5654C33.629 57.5927 33.6867 57.62 33.7428 57.6458C33.8263 57.6838 33.9097 57.7202 33.9932 57.7551C34.0691 57.7885 34.1449 57.8203 34.2208 57.8507C34.2587 57.8674 34.2951 57.8826 34.3331 57.8962H34.3346C34.3346 57.8962 34.3346 57.8962 34.3361 57.8962C34.3816 57.9144 34.4256 57.9326 34.4712 57.9493C34.4894 57.9569 34.5076 57.963 34.5243 57.969C34.6092 58.0009 34.6942 58.0328 34.7792 58.0616C34.8733 58.095 34.9674 58.1269 35.0614 58.1572C35.1494 58.186 35.239 58.2134 35.327 58.2392C35.503 58.2923 35.6805 58.3423 35.8611 58.3864C35.9521 58.4076 36.0417 58.4288 36.1327 58.4501C36.2541 58.4774 36.377 58.5017 36.4984 58.526C36.5955 58.5442 36.6926 58.5624 36.7897 58.5791C36.9081 58.6003 37.0265 58.6185 37.1463 58.6352C38.166 59.8583 39.4452 60.8568 40.9004 61.5442C42.3252 62.218 43.917 62.5958 45.5983 62.5958C46.4541 62.5958 47.2871 62.4987 48.0868 62.3121Z" fill="white" stroke="#FDE70D" stroke-miterlimit="10" />
      <path d="M35.327 58.2391C35.5046 58.2922 35.6836 58.3408 35.8612 58.3863C35.6806 58.3423 35.503 58.2922 35.327 58.2391Z" fill="#683737" />
      <path d="M37.9612 58.7187C37.6866 58.7005 37.415 58.6732 37.1464 58.6352C37.0265 58.6186 36.9082 58.6003 36.7898 58.5791C36.9082 58.5988 37.0265 58.617 37.1449 58.6322C37.4165 58.6701 37.6896 58.699 37.9612 58.7187Z" fill="#683737" />
      <path d="M38.9186 58.7505C38.8943 58.752 38.8701 58.752 38.8458 58.752C38.8215 58.752 38.7972 58.752 38.7729 58.7505H38.9186Z" fill="#683737" />
      <path d="M40.9019 58.5791C40.518 58.6459 40.1265 58.6929 39.7305 58.7187C40.122 58.6914 40.5134 58.6444 40.9019 58.5791Z" fill="#683737" />
      <path d="M42.3647 58.2391C42.1887 58.2922 42.0111 58.3423 41.8306 58.3863C42.0081 58.3408 42.1872 58.2922 42.3647 58.2391Z" fill="#683737" />
      <path d="M50.2824 50.972C50.2824 50.9735 50.2824 50.9735 50.2824 50.9735C50.2703 51.0038 50.2582 51.0357 50.2445 51.0661C50.2582 51.0342 50.2703 51.0023 50.2809 50.9705C50.2824 50.972 50.2824 50.972 50.2824 50.972Z" fill="#683737" />
   </g>
   <defs>
      <clipPath id="clip0_0_1">
         <rect width="38.9656" height="38.9656" fill="white" transform="translate(19.363 26.9771)" />
      </clipPath>
   </defs>
</svg>
   