<svg width="356" height="105" viewBox="0 0 356 105" fill="none" xmlns="http://www.w3.org/2000/svg">
   <path d="M9 0.339746L0.339746 9L9 17.6603L17.6603 9L9 0.339746ZM9 103H7.5C7.5 103.828 8.17157 104.5 9 104.5V103ZM337.571 103V104.5C338.4 104.5 339.071 103.828 339.071 103H337.571ZM337.571 9L338.887 8.27953C338.619 7.78963 338.101 7.48937 337.542 7.50029C336.984 7.51121 336.478 7.8315 336.229 8.33151L337.571 9ZM322.636 39L321.294 38.3315C321.062 38.7965 321.088 39.3481 321.361 39.7897C321.635 40.2313 322.117 40.5 322.636 40.5V39ZM354 39V40.5C354.53 40.5 355.02 40.2205 355.29 39.7646C355.561 39.3088 355.57 38.7443 355.316 38.2795L354 39ZM7.5 9V12.9167H10.5V9H7.5ZM7.5 20.75V28.5833H10.5V20.75H7.5ZM7.5 36.4167V44.25H10.5V36.4167H7.5ZM7.5 52.0833V59.9167H10.5V52.0833H7.5ZM7.5 67.75V75.5833H10.5V67.75H7.5ZM7.5 83.4167V91.25H10.5V83.4167H7.5ZM7.5 99.0833V103H10.5V99.0833H7.5ZM9 104.5H12.9116V101.5H9V104.5ZM20.7347 104.5H28.5578V101.5H20.7347V104.5ZM36.381 104.5H44.2041V101.5H36.381V104.5ZM52.0272 104.5H59.8503V101.5H52.0272V104.5ZM67.6735 104.5H75.4966V101.5H67.6735V104.5ZM83.3197 104.5H91.1429V101.5H83.3197V104.5ZM98.966 104.5H106.789V101.5H98.966V104.5ZM114.612 104.5H122.435V101.5H114.612V104.5ZM130.258 104.5H138.082V101.5H130.258V104.5ZM145.905 104.5H153.728V101.5H145.905V104.5ZM161.551 104.5H169.374V101.5H161.551V104.5ZM177.197 104.5H185.02V101.5H177.197V104.5ZM192.844 104.5H200.667V101.5H192.844V104.5ZM208.49 104.5H216.313V101.5H208.49V104.5ZM224.136 104.5H231.959V101.5H224.136V104.5ZM239.782 104.5H247.606V101.5H239.782V104.5ZM255.429 104.5H263.252V101.5H255.429V104.5ZM271.075 104.5H278.898V101.5H271.075V104.5ZM286.721 104.5H294.544V101.5H286.721V104.5ZM302.367 104.5H310.191V101.5H302.367V104.5ZM318.014 104.5H325.837V101.5H318.014V104.5ZM333.66 104.5H337.571V101.5H333.66V104.5ZM339.071 103V99.0833H336.071V103H339.071ZM339.071 91.25V83.4167H336.071V91.25H339.071ZM339.071 75.5833V67.75H336.071V75.5833H339.071ZM339.071 59.9167V52.0833H336.071V59.9167H339.071ZM339.071 44.25V36.4167H336.071V44.25H339.071ZM339.071 28.5833V20.75H336.071V28.5833H339.071ZM339.071 12.9167V9H336.071V12.9167H339.071ZM336.229 8.33151L334.362 12.0815L337.047 13.4185L338.914 9.66849L336.229 8.33151ZM330.628 19.5815L326.894 27.0815L329.58 28.4185L333.314 20.9185L330.628 19.5815ZM323.16 34.5815L321.294 38.3315L323.979 39.6685L325.846 35.9185L323.16 34.5815ZM322.636 40.5H326.557V37.5H322.636V40.5ZM334.398 40.5H342.239V37.5H334.398V40.5ZM350.08 40.5H354V37.5H350.08V40.5ZM355.316 38.2795L353.262 34.5295L350.631 35.9705L352.684 39.7205L355.316 38.2795ZM349.155 27.0295L345.048 19.5295L342.417 20.9705L346.524 28.4705L349.155 27.0295ZM340.941 12.0295L338.887 8.27953L336.256 9.72047L338.309 13.4705L340.941 12.0295Z" fill="black" />
</svg>
   